<svg xmlns="http://www.w3.org/2000/svg" xmlns:xlink="http://www.w3.org/1999/xlink" width="50" zoomAndPan="magnify" viewBox="0 0 37.5 37.499999" height="50" preserveAspectRatio="xMidYMid meet" version="1.0"><defs><clipPath id="69ab9eea78"><path d="M 0 0 L 37.007812 0 L 37.007812 37.007812 L 0 37.007812 Z M 0 0 " clip-rule="nonzero"/></clipPath></defs><path fill="#9c9c9c" d="M 20.550781 13.125 L 20.550781 16.175781 L 24.390625 16.175781 L 23.851562 20.34375 L 20.550781 20.34375 L 20.550781 29.902344 L 16.363281 29.902344 L 16.363281 20.34375 L 12.777344 20.34375 L 12.777344 16.175781 L 16.363281 16.175781 L 16.363281 13.125 C 16.363281 9.824219 19.035156 7.597656 22.335938 7.597656 C 23.789062 7.597656 24.707031 7.820312 24.707031 7.820312 L 24.707031 11.339844 L 22.335938 11.339844 C 21.355469 11.339844 20.550781 12.148438 20.550781 13.125 Z M 20.550781 13.125 " fill-opacity="1" fill-rule="nonzero"/><g clip-path="url(#69ab9eea78)"><path fill="#9c9c9c" d="M 18.75 37.5 C 8.417969 37.5 0 29.097656 0 18.75 C 0 8.402344 8.417969 0 18.75 0 C 29.097656 0 37.5 8.417969 37.5 18.75 C 37.5 29.082031 29.097656 37.5 18.75 37.5 Z M 18.75 1.027344 C 8.972656 1.027344 1.027344 8.972656 1.027344 18.75 C 1.027344 28.527344 8.972656 36.472656 18.75 36.472656 C 28.527344 36.472656 36.472656 28.527344 36.472656 18.75 C 36.472656 8.972656 28.527344 1.027344 18.75 1.027344 Z M 18.75 1.027344 " fill-opacity="1" fill-rule="nonzero"/></g></svg>