<svg xmlns="http://www.w3.org/2000/svg" xmlns:xlink="http://www.w3.org/1999/xlink" width="50" zoomAndPan="magnify" viewBox="0 0 37.5 37.499999" height="50" preserveAspectRatio="xMidYMid meet" version="1.0"><defs><clipPath id="b0b0e7120b"><path d="M 0 0 L 37.007812 0 L 37.007812 37.007812 L 0 37.007812 Z M 0 0 " clip-rule="nonzero"/></clipPath></defs><g clip-path="url(#b0b0e7120b)"><path fill="#9c9c9c" d="M 7.882812 0 L 29.617188 0 C 31.789062 0 33.753906 0.886719 35.179688 2.320312 C 36.613281 3.746094 37.5 5.710938 37.5 7.882812 L 37.5 29.617188 C 37.5 31.789062 36.613281 33.753906 35.179688 35.179688 C 33.753906 36.613281 31.789062 37.5 29.617188 37.5 L 7.882812 37.5 C 5.710938 37.5 3.746094 36.613281 2.320312 35.179688 C 0.886719 33.753906 0 31.789062 0 29.617188 L 0 7.882812 C 0 5.710938 0.886719 3.746094 2.320312 2.320312 C 3.746094 0.886719 5.710938 0 7.882812 0 Z M 30.210938 6.148438 C 30.636719 6.148438 30.988281 6.5 30.988281 6.925781 C 30.988281 7.359375 30.636719 7.707031 30.210938 7.707031 C 29.777344 7.707031 29.429688 7.359375 29.429688 6.925781 C 29.429688 6.5 29.777344 6.148438 30.210938 6.148438 Z M 18.75 8.28125 C 24.535156 8.28125 29.21875 12.964844 29.21875 18.75 C 29.21875 24.535156 24.535156 29.21875 18.75 29.21875 C 12.964844 29.21875 8.28125 24.535156 8.28125 18.75 C 8.28125 12.964844 12.964844 8.28125 18.75 8.28125 Z M 27.722656 18.75 C 27.722656 13.800781 23.699219 9.777344 18.75 9.777344 C 13.800781 9.777344 9.777344 13.800781 9.777344 18.75 C 9.777344 23.699219 13.800781 27.722656 18.75 27.722656 C 23.699219 27.722656 27.722656 23.699219 27.722656 18.75 Z M 29.617188 1.503906 L 7.882812 1.503906 C 6.128906 1.503906 4.535156 2.222656 3.375 3.375 C 2.222656 4.535156 1.503906 6.128906 1.503906 7.882812 L 1.503906 29.617188 C 1.503906 31.371094 2.222656 32.964844 3.375 34.125 C 4.535156 35.277344 6.128906 35.996094 7.882812 35.996094 L 29.617188 35.996094 C 31.371094 35.996094 32.964844 35.277344 34.125 34.125 C 35.277344 32.964844 35.996094 31.371094 35.996094 29.617188 L 35.996094 7.882812 C 35.996094 6.128906 35.277344 4.535156 34.125 3.375 C 32.964844 2.222656 31.371094 1.503906 29.617188 1.503906 Z M 29.617188 1.503906 " fill-opacity="1" fill-rule="nonzero"/></g></svg>