<svg xmlns="http://www.w3.org/2000/svg" xmlns:xlink="http://www.w3.org/1999/xlink" width="50" zoomAndPan="magnify" viewBox="0 0 37.5 37.499999" height="50" preserveAspectRatio="xMidYMid meet" version="1.0"><defs><clipPath id="95d52af21a"><path d="M 0 0 L 37.007812 0 L 37.007812 37.007812 L 0 37.007812 Z M 0 0 " clip-rule="nonzero"/></clipPath></defs><path fill="#9c9c9c" d="M 19.777344 7.328125 C 14.042969 7.328125 9.382812 11.988281 9.382812 17.722656 C 9.382812 19.601562 9.886719 21.417969 10.835938 23.015625 L 9.429688 28.085938 L 14.753906 26.820312 C 16.285156 27.675781 18.007812 28.117188 19.777344 28.117188 C 25.511719 28.117188 30.171875 23.457031 30.171875 17.722656 C 30.171875 11.988281 25.511719 7.328125 19.777344 7.328125 Z M 19.777344 26.410156 C 18.195312 26.410156 16.664062 25.984375 15.320312 25.195312 L 15.023438 25.019531 L 11.847656 25.761719 L 12.683594 22.746094 L 12.480469 22.429688 C 11.578125 21.039062 11.105469 19.398438 11.105469 17.722656 C 11.105469 12.9375 15.007812 9.035156 19.792969 9.035156 C 24.578125 9.035156 28.480469 12.9375 28.480469 17.722656 C 28.464844 22.523438 24.5625 26.410156 19.777344 26.410156 Z M 19.777344 26.410156 " fill-opacity="1" fill-rule="nonzero"/><path fill="#9c9c9c" d="M 24.722656 21.46875 C 24.640625 21.894531 23.726562 22.429688 23.140625 22.589844 C 21.6875 22.96875 19.648438 21.863281 17.628906 20.109375 C 15.589844 18.339844 14.214844 16.476562 14.40625 14.992188 C 14.46875 14.40625 14.894531 13.410156 15.304688 13.285156 C 15.703125 13.15625 15.984375 13.269531 16.394531 13.410156 C 16.601562 13.632812 16.855469 13.917969 17.140625 14.230469 C 17.519531 14.660156 17.769531 15.054688 17.945312 15.320312 C 18.070312 15.542969 18.023438 15.828125 17.832031 16 L 17.140625 16.617188 C 17.011719 16.726562 16.964844 16.917969 17.042969 17.058594 C 17.265625 17.519531 17.769531 18.464844 18.511719 19.113281 C 19.253906 19.761719 20.265625 20.125 20.742188 20.28125 C 20.898438 20.328125 21.070312 20.265625 21.167969 20.125 L 21.6875 19.351562 C 21.832031 19.144531 22.113281 19.050781 22.351562 19.144531 C 22.636719 19.269531 23.0625 19.460938 23.535156 19.777344 C 23.898438 20.015625 24.199219 20.234375 24.453125 20.410156 C 24.640625 20.789062 24.800781 21.054688 24.722656 21.46875 Z M 24.722656 21.46875 " fill-opacity="1" fill-rule="nonzero"/><g clip-path="url(#95d52af21a)"><path fill="#9c9c9c" d="M 18.75 37.5 C 8.417969 37.5 0 29.097656 0 18.75 C 0 8.417969 8.417969 0 18.75 0 C 29.082031 0 37.5 8.417969 37.5 18.75 C 37.5 29.097656 29.097656 37.5 18.75 37.5 Z M 18.75 1.027344 C 8.972656 1.027344 1.027344 8.972656 1.027344 18.75 C 1.027344 28.527344 8.972656 36.472656 18.75 36.472656 C 28.527344 36.472656 36.472656 28.527344 36.472656 18.75 C 36.472656 8.972656 28.527344 1.027344 18.75 1.027344 Z M 18.75 1.027344 " fill-opacity="1" fill-rule="nonzero"/></g></svg>