<svg xmlns="http://www.w3.org/2000/svg" xmlns:xlink="http://www.w3.org/1999/xlink" width="65" zoomAndPan="magnify" viewBox="0 0 48.75 37.5" height="50" preserveAspectRatio="xMidYMid meet" version="1.0"><defs><clipPath id="614e82a3c0"><path d="M 6 1 L 44 1 L 44 32 L 6 32 Z M 6 1 " clip-rule="nonzero"/></clipPath><clipPath id="734f10ba7b"><path d="M 20.714844 42.71875 L -1.828125 12.203125 L 28.089844 -9.902344 L 50.632812 20.617188 Z M 20.714844 42.71875 " clip-rule="nonzero"/></clipPath><clipPath id="15b84b1576"><path d="M 20.714844 42.71875 L -1.828125 12.203125 L 28.089844 -9.902344 L 50.632812 20.617188 Z M 20.714844 42.71875 " clip-rule="nonzero"/></clipPath></defs><g clip-path="url(#614e82a3c0)"><g clip-path="url(#734f10ba7b)"><g clip-path="url(#15b84b1576)"><path fill="#d9d9d9" d="M 9.367188 17.625 C 5.882812 12.90625 6.519531 7.992188 9.238281 4.914062 C 11.441406 2.417969 15.003906 1.128906 18.84375 2.125 C 20.421875 2.53125 21.816406 3.351562 23.242188 4.257812 C 27.898438 7.214844 27.46875 7.210938 32.875 7.460938 C 41.199219 7.847656 45.957031 18.097656 41.898438 24.820312 C 39.480469 28.832031 34.429688 31.886719 26.027344 30.019531 C 20.769531 28.847656 17.144531 34.472656 12.316406 30.609375 C 10.984375 29.542969 10.050781 27.984375 10.054688 26.363281 C 10.058594 23.714844 11.992188 21.175781 9.367188 17.625 " fill-opacity="1" fill-rule="evenodd"/></g></g></g></svg>