<svg xmlns="http://www.w3.org/2000/svg" xmlns:xlink="http://www.w3.org/1999/xlink" width="65" zoomAndPan="magnify" viewBox="0 0 48.75 37.5" height="50" preserveAspectRatio="xMidYMid meet" version="1.0"><defs><clipPath id="d56c59ae23"><path d="M 36 16 L 48.304688 16 L 48.304688 32 L 36 32 Z M 36 16 " clip-rule="nonzero"/></clipPath><clipPath id="7916b03d3e"><path d="M 0.199219 0 L 48.304688 0 L 48.304688 30 L 0.199219 30 Z M 0.199219 0 " clip-rule="nonzero"/></clipPath><clipPath id="bd7d1b3c2a"><path d="M 0.199219 24 L 48.304688 24 L 48.304688 37.007812 L 0.199219 37.007812 Z M 0.199219 24 " clip-rule="nonzero"/></clipPath><clipPath id="37a27cd305"><path d="M 0.199219 16 L 13 16 L 13 32 L 0.199219 32 Z M 0.199219 16 " clip-rule="nonzero"/></clipPath></defs><g clip-path="url(#d56c59ae23)"><path fill="#9c9c9c" d="M 48.503906 31.289062 L 48.503906 16.664062 L 36.046875 23.976562 Z M 48.503906 31.289062 " fill-opacity="1" fill-rule="nonzero"/></g><g clip-path="url(#7916b03d3e)"><path fill="#9c9c9c" d="M 43.480469 10.601562 L 24.375 -0.00390625 L 5.269531 10.601562 C 4.851562 10.8125 4.539062 11.019531 4.171875 11.175781 C 2.289062 12.167969 0.558594 13.058594 0.351562 14.886719 L 14.585938 23.296875 L 24.375 29.042969 L 34.164062 23.296875 L 48.453125 14.886719 C 48.242188 13.109375 46.460938 12.167969 44.628906 11.175781 C 44.265625 11.019531 43.898438 10.863281 43.480469 10.601562 Z M 31.648438 20.582031 C 31.179688 21.050781 30.601562 21.46875 29.921875 21.835938 C 29.242188 22.148438 28.511719 22.410156 27.726562 22.617188 C 26.886719 22.773438 26.050781 22.878906 25.054688 22.878906 C 23.640625 22.878906 22.332031 22.671875 21.183594 22.304688 C 20.03125 21.9375 19.035156 21.363281 18.25 20.683594 C 17.464844 19.953125 16.890625 19.117188 16.472656 18.125 C 16.054688 17.132812 15.84375 16.035156 15.84375 14.886719 C 15.84375 13.632812 16.054688 12.484375 16.472656 11.386719 C 16.890625 10.289062 17.464844 9.347656 18.25 8.566406 C 19.035156 7.78125 19.976562 7.15625 21.128906 6.683594 C 22.28125 6.214844 23.484375 6.003906 24.847656 6.003906 C 25.945312 6.003906 26.992188 6.160156 27.882812 6.476562 C 28.824219 6.789062 29.609375 7.257812 30.289062 7.886719 C 30.96875 8.511719 31.441406 9.191406 31.808594 10.027344 C 32.171875 10.863281 32.332031 11.75 32.332031 12.796875 C 32.332031 13.582031 32.171875 14.363281 31.910156 15.09375 C 31.648438 15.828125 31.230469 16.503906 30.707031 17.132812 C 30.183594 17.707031 29.558594 18.175781 28.875 18.542969 C 28.144531 18.910156 27.410156 19.066406 26.574219 19.066406 C 26.101562 19.066406 25.734375 18.960938 25.472656 18.804688 C 25.210938 18.648438 25.054688 18.386719 24.949219 18.019531 C 24.425781 18.542969 23.851562 18.855469 23.171875 18.960938 C 22.492188 19.117188 21.863281 19.011719 21.234375 18.804688 C 20.660156 18.59375 20.1875 18.175781 19.820312 17.550781 C 19.453125 16.921875 19.246094 16.191406 19.246094 15.304688 C 19.246094 14.363281 19.453125 13.476562 19.820312 12.585938 C 20.238281 11.699219 20.761719 10.96875 21.496094 10.394531 C 22.230469 9.820312 23.066406 9.558594 23.957031 9.558594 C 25.003906 9.558594 25.789062 9.976562 26.257812 10.757812 L 26.46875 9.765625 L 28.773438 9.765625 L 27.464844 16.035156 C 27.359375 16.453125 27.359375 16.714844 27.359375 16.820312 C 27.359375 16.976562 27.410156 17.082031 27.464844 17.132812 C 27.515625 17.183594 27.621094 17.238281 27.726562 17.238281 C 28.039062 17.238281 28.457031 17.027344 28.929688 16.609375 C 29.453125 16.191406 29.871094 15.617188 30.238281 14.9375 C 30.601562 14.207031 30.8125 13.476562 30.8125 12.585938 C 30.8125 11.910156 30.65625 11.230469 30.394531 10.601562 C 30.132812 9.976562 29.765625 9.453125 29.242188 8.984375 C 28.71875 8.511719 28.144531 8.148438 27.359375 7.9375 C 26.625 7.675781 25.789062 7.574219 24.847656 7.574219 C 23.902344 7.574219 23.015625 7.675781 22.230469 7.9375 C 21.445312 8.199219 20.710938 8.566406 20.136719 8.984375 C 19.507812 9.453125 19.035156 10.027344 18.617188 10.707031 C 18.25 11.28125 17.988281 11.960938 17.78125 12.691406 C 17.570312 13.421875 17.519531 14.15625 17.519531 14.886719 C 17.519531 15.878906 17.726562 16.820312 18.148438 17.65625 C 18.566406 18.492188 19.140625 19.171875 19.875 19.746094 C 20.660156 20.320312 21.546875 20.683594 22.648438 20.945312 C 23.746094 21.207031 24.949219 21.207031 26.3125 21.101562 C 27.410156 21 28.300781 20.738281 29.085938 20.371094 C 29.820312 20.007812 30.5 19.484375 31.023438 18.855469 L 32.90625 18.855469 C 32.539062 19.535156 32.171875 20.109375 31.648438 20.582031 Z M 31.648438 20.582031 " fill-opacity="1" fill-rule="nonzero"/></g><path fill="#9c9c9c" d="M 25.371094 11.75 C 25.210938 11.542969 25.054688 11.4375 24.847656 11.332031 C 24.636719 11.230469 24.425781 11.175781 24.164062 11.175781 C 23.640625 11.175781 23.171875 11.386719 22.753906 11.804688 C 22.332031 12.222656 22.019531 12.746094 21.808594 13.371094 C 21.601562 14 21.496094 14.675781 21.496094 15.355469 C 21.496094 16.035156 21.652344 16.609375 21.914062 16.976562 C 22.230469 17.339844 22.59375 17.550781 23.066406 17.550781 C 23.640625 17.550781 24.113281 17.339844 24.53125 16.871094 C 24.949219 16.453125 25.265625 15.878906 25.472656 15.199219 C 25.683594 14.519531 25.789062 13.894531 25.789062 13.265625 C 25.789062 12.953125 25.734375 12.691406 25.683594 12.429688 C 25.632812 12.167969 25.527344 11.910156 25.371094 11.75 Z M 25.371094 11.75 " fill-opacity="1" fill-rule="nonzero"/><g clip-path="url(#bd7d1b3c2a)"><path fill="#9c9c9c" d="M 24.792969 30.558594 C 24.585938 30.714844 24.269531 30.714844 24.007812 30.558594 L 14.222656 24.8125 L 0.296875 33.015625 C 0.402344 34.113281 0.875 35.105469 1.660156 35.835938 C 2.496094 36.671875 3.648438 37.195312 4.90625 37.195312 L 43.898438 37.195312 C 45.152344 37.195312 46.304688 36.671875 47.144531 35.835938 C 47.875 35.105469 48.398438 34.113281 48.503906 33.015625 L 34.527344 24.8125 Z M 24.792969 30.558594 " fill-opacity="1" fill-rule="nonzero"/></g><g clip-path="url(#37a27cd305)"><path fill="#9c9c9c" d="M 0.246094 16.664062 L 0.246094 31.289062 L 12.703125 23.976562 Z M 0.246094 16.664062 " fill-opacity="1" fill-rule="nonzero"/></g></svg>